<svg width="100" height="100" viewBox="0 0 37 37" fill="none" xmlns="http://www.w3.org/2000/svg">
<rect width="37" height="37" rx="8" fill="#D3D3D3"/>
<rect width="37" height="37" rx="8" fill="#16577B"/>
<path d="M18.4142 30.9679C16.7656 30.9679 15.1332 30.6432 13.6102 30.0123C12.0871 29.3815 10.7032 28.4568 9.53748 27.2911C8.37178 26.1254 7.44709 24.7415 6.81621 23.2184C6.18534 21.6953 5.86063 20.0629 5.86063 18.4143C5.86063 16.7658 6.18534 15.1334 6.81621 13.6103C7.44709 12.0872 8.37178 10.7033 9.53749 9.53763C10.7032 8.37193 12.0871 7.44724 13.6102 6.81636C15.1332 6.18549 16.7656 5.86078 18.4142 5.86078L18.4142 12.1376C17.5899 12.1376 16.7737 12.2999 16.0122 12.6154C15.2506 12.9308 14.5587 13.3931 13.9758 13.976C13.393 14.5588 12.9306 15.2508 12.6152 16.0123C12.2998 16.7739 12.1374 17.5901 12.1374 18.4143C12.1374 19.2386 12.2998 20.0548 12.6152 20.8164C12.9306 21.5779 13.393 22.2699 13.9758 22.8527C14.5587 23.4356 15.2506 23.8979 16.0122 24.2133C16.7737 24.5288 17.5899 24.6911 18.4142 24.6911L18.4142 30.9679Z" fill="#FFE3C2"/>
<path d="M30.9677 18.4144C30.9677 21.7438 29.6451 24.9368 27.2909 27.2911C24.9366 29.6453 21.7436 30.9679 18.4142 30.9679C15.0848 30.9679 11.8917 29.6453 9.53745 27.2911C7.1832 24.9368 5.8606 21.7438 5.8606 18.4144L12.1374 18.4144C12.1374 20.0791 12.7987 21.6756 13.9758 22.8527C15.1529 24.0298 16.7495 24.6911 18.4142 24.6911C20.0789 24.6911 21.6754 24.0298 22.8525 22.8527C24.0297 21.6756 24.691 20.0791 24.691 18.4144L30.9677 18.4144Z" fill="#1ABA9D"/>
</svg>
