<svg width="37" height="37" viewBox="0 0 37 37" fill="none" xmlns="http://www.w3.org/2000/svg">
<rect width="37" height="37" rx="8" fill="#D3D3D3"/>
<rect width="37" height="37" rx="8" fill="#489D47"/>
<path d="M9.53747 9.53767C10.7032 8.37196 12.0871 7.44727 13.6101 6.8164C15.1332 6.18552 16.7656 5.86081 18.4142 5.86081C20.0627 5.86081 21.6952 6.18552 23.2182 6.8164C24.7413 7.44727 26.1252 8.37196 27.2909 9.53767C28.4566 10.7034 29.3813 12.0873 30.0122 13.6103C30.6431 15.1334 30.9678 16.7658 30.9678 18.4144C30.9678 20.0629 30.643 21.6954 30.0122 23.2184C29.3813 24.7415 28.4566 26.1254 27.2909 27.2911L22.8525 22.8527C23.4354 22.2699 23.8977 21.5779 24.2132 20.8164C24.5286 20.0549 24.691 19.2387 24.691 18.4144C24.691 17.5901 24.5286 16.7739 24.2132 16.0124C23.8977 15.2508 23.4354 14.5589 22.8525 13.976C22.2697 13.3932 21.5777 12.9308 20.8162 12.6154C20.0547 12.3 19.2385 12.1376 18.4142 12.1376C17.5899 12.1376 16.7737 12.3 16.0122 12.6154C15.2506 12.9308 14.5587 13.3932 13.9758 13.976L9.53747 9.53767Z" fill="#A4FFE9"/>
<path d="M9.53747 27.2911C7.18322 24.9368 5.86061 21.7438 5.86061 18.4144C5.86061 15.0849 7.18322 11.8919 9.53747 9.53764C11.8917 7.18339 15.0848 5.86078 18.4142 5.86078C21.7436 5.86078 24.9366 7.18338 27.2909 9.53763L22.8525 13.976C21.6754 12.7989 20.0789 12.1376 18.4142 12.1376C16.7495 12.1376 15.153 12.7989 13.9758 13.976C12.7987 15.1531 12.1374 16.7496 12.1374 18.4144C12.1374 20.0791 12.7987 21.6756 13.9758 22.8527L9.53747 27.2911Z" fill="#1B4F45"/>
</svg>
