<svg width="55" height="55" viewBox="0 0 55 55" fill="none" xmlns="http://www.w3.org/2000/svg">
<rect width="55" height="55" rx="8" fill="#D3D3D3"/>
<rect width="55" height="55" rx="8" fill="#8A54CF"/>
<path d="M40.5676 40.5678C38.8347 42.3006 36.7776 43.6751 34.5136 44.6129C32.2496 45.5507 29.823 46.0334 27.3724 46.0334C24.9219 46.0334 22.4953 45.5507 20.2313 44.6129C17.9673 43.6751 15.9101 42.3006 14.1773 40.5678C12.4445 38.835 11.07 36.7778 10.1322 34.5138C9.19439 32.2498 8.71172 29.8232 8.71172 27.3727C8.71172 24.9221 9.19439 22.4955 10.1322 20.2315C11.07 17.9675 12.4445 15.9103 14.1773 14.1775L20.7749 20.7751C19.9085 21.6415 19.2212 22.6701 18.7523 23.8021C18.2834 24.9341 18.0421 26.1474 18.0421 27.3727C18.0421 28.5979 18.2834 29.8112 18.7523 30.9432C19.2212 32.0752 19.9085 33.1038 20.7749 33.9702C21.6413 34.8366 22.6698 35.5239 23.8019 35.9928C24.9339 36.4617 26.1472 36.703 27.3724 36.703C28.5977 36.703 29.811 36.4617 30.943 35.9928C32.075 35.5239 33.1036 34.8366 33.97 33.9702L40.5676 40.5678Z" fill="#FFA5EB"/>
<path d="M40.5676 14.1776C44.0671 17.6771 46.0332 22.4236 46.0332 27.3727C46.0332 32.3218 44.0671 37.0683 40.5676 40.5678C37.068 44.0674 32.3216 46.0334 27.3724 46.0334C22.4233 46.0334 17.6769 44.0674 14.1773 40.5678L20.7749 33.9703C22.5247 35.72 24.8979 36.7031 27.3724 36.7031C29.847 36.7031 32.2202 35.72 33.97 33.9703C35.7198 32.2205 36.7028 29.8473 36.7028 27.3727C36.7028 24.8981 35.7198 22.5249 33.97 20.7751L40.5676 14.1776Z" fill="white"/>
</svg>
