<svg width="56" height="56" viewBox="0 0 56 56" fill="none" xmlns="http://www.w3.org/2000/svg">
<rect width="56" height="56" rx="8" fill="#D3D3D3"/>
<rect width="56" height="56" rx="8" fill="#FFB547"/>
<path d="M8.87012 27.8703C8.87012 25.3752 9.36157 22.9045 10.3164 20.5994C11.2712 18.2942 12.6708 16.1996 14.4351 14.4353C16.1994 12.671 18.2939 11.2715 20.5991 10.3166C22.9043 9.36179 25.375 8.87034 27.8701 8.87034C30.3652 8.87034 32.8359 9.3618 35.1411 10.3166C37.4463 11.2715 39.5408 12.671 41.3051 14.4353C43.0695 16.1996 44.469 18.2942 45.4238 20.5994C46.3787 22.9045 46.8701 25.3752 46.8701 27.8703L37.3701 27.8703C37.3701 26.6228 37.1244 25.3874 36.647 24.2349C36.1696 23.0823 35.4698 22.035 34.5876 21.1528C33.7055 20.2707 32.6582 19.5709 31.5056 19.0935C30.353 18.6161 29.1177 18.3703 27.8701 18.3703C26.6226 18.3703 25.3872 18.6161 24.2346 19.0935C23.082 19.5709 22.0348 20.2707 21.1526 21.1528C20.2704 22.035 19.5707 23.0823 19.0933 24.2349C18.6158 25.3874 18.3701 26.6228 18.3701 27.8703L8.87012 27.8703Z" fill="white"/>
<path d="M27.8701 46.8704C22.831 46.8704 17.9983 44.8686 14.4351 41.3054C10.8719 37.7422 8.87012 32.9095 8.87012 27.8704C8.87012 22.8313 10.8719 17.9985 14.4351 14.4353C17.9983 10.8722 22.831 8.87037 27.8701 8.87037L27.8701 18.3704C25.3506 18.3704 22.9342 19.3713 21.1526 21.1529C19.371 22.9345 18.3701 25.3508 18.3701 27.8704C18.3701 30.3899 19.371 32.8063 21.1526 34.5879C22.9342 36.3695 25.3506 37.3704 27.8701 37.3704V46.8704Z" fill="#222222"/>
</svg>
