<?xml version="1.0" encoding="UTF-8"?>
<svg id="Favicon_1_-_White" data-name="Favicon 1 - White" xmlns="http://www.w3.org/2000/svg" viewBox="0 0 1080 1080">
  <defs>
    <style>
      .cls-1 {
        fill: #ffc107;
        fill-rule: evenodd;
        stroke-width: 0px;
      }
    </style>
  </defs>
  <g id="Sun_Favicon" data-name="Sun Favicon">
    <path class="cls-1" d="m642.49,553.38c-7.1,50.31-50.29,89.03-102.56,89.03s-95.46-38.72-102.55-89.03c-1-7.11,4.8-13.38,11.98-13.38h181.16c7.18,0,12.98,6.27,11.98,13.38h0Zm-63.93-72.53c0-12.29,9.96-22.25,22.25-22.25s22.25,9.96,22.25,22.25-9.96,22.25-22.25,22.25-22.25-9.96-22.25-22.25h0Zm-121.62,0c0-12.29,9.96-22.25,22.25-22.25s22.25,9.96,22.25,22.25-9.96,22.25-22.25,22.25-22.25-9.96-22.25-22.25h0Zm-162.02-161.66c-6.7-6.7-6.7-17.56,0-24.27,6.7-6.7,17.56-6.7,24.26,0l58.13,58.13c6.7,6.7,6.7,17.57,0,24.28-3.35,3.35-7.74,5.02-12.14,5.02s-8.78-1.67-12.13-5.02l-58.13-58.13Zm490.16,441.62c6.7,6.7,6.7,17.57,0,24.27-3.35,3.35-7.73,5.02-12.13,5.02s-8.79-1.67-12.14-5.03l-58.13-58.13c-6.7-6.7-6.7-17.57,0-24.27,6.7-6.7,17.56-6.71,24.26,0l58.13,58.13Zm-407.76-58.14c6.7,6.7,6.7,17.57,0,24.28l-58.13,58.13c-3.35,3.35-7.74,5.02-12.13,5.02s-8.79-1.67-12.14-5.02c-6.7-6.7-6.7-17.57,0-24.28l58.13-58.13c6.7-6.7,17.56-6.7,24.26,0h0Zm325.36-325.35c-6.7-6.71-6.7-17.57,0-24.28l58.13-58.13c6.7-6.7,17.57-6.7,24.27,0,6.7,6.71,6.7,17.56,0,24.27l-58.13,58.13c-3.35,3.35-7.75,5.02-12.14,5.02s-8.79-1.67-12.14-5.02h0Zm-409.9,179.84h-82.22c-9.47,0-17.16-7.68-17.16-17.16s7.69-17.16,17.16-17.16h82.22c9.47,0,17.16,7.68,17.16,17.16s-7.69,17.16-17.16,17.16h0Zm593.82-17.16c0,9.48-7.68,17.16-17.16,17.16h-82.21c-9.48,0-17.16-7.68-17.16-17.16s7.68-17.16,17.16-17.16h82.21c9.48,0,17.16,7.68,17.16,17.16h0Zm-329.44,247.22v82.22c0,9.48-7.68,17.16-17.16,17.16s-17.15-7.68-17.15-17.16v-82.22c0-9.48,7.68-17.16,17.15-17.16s17.16,7.68,17.16,17.16h0Zm-34.32-494.45v-82.21c0-9.48,7.68-17.16,17.15-17.16s17.16,7.68,17.16,17.16v82.21c0,9.48-7.68,17.16-17.16,17.16s-17.15-7.68-17.15-17.16h0Zm17.15,395.78c-81.92,0-148.56-66.64-148.56-148.56s66.64-148.57,148.56-148.57,148.57,66.65,148.57,148.57-66.65,148.56-148.57,148.56h0Zm0-331.44c-101,0-182.88,81.88-182.88,182.88s81.88,182.88,182.88,182.88,182.88-81.88,182.88-182.88-81.88-182.88-182.88-182.88h0Z"/>
  </g>
</svg>