<?xml version="1.0" encoding="UTF-8"?>
<svg id="Primary_Logo" data-name="Primary Logo" xmlns="http://www.w3.org/2000/svg" viewBox="0 0 3162.08 693.18">
  <defs>
    <style>
      .cls-1, .cls-2, .cls-3, .cls-4 {
        stroke-width: 0px;
      }

      .cls-1, .cls-4 {
        fill: #ffc107;
      }

      .cls-2 {
        fill: #333;
      }

      .cls-3 {
        fill: #fff;
      }

      .cls-4 {
        fill-rule: evenodd;
      }
    </style>
  </defs>
  <rect id="White_Rectangle_Background" data-name="White Rectangle Background" class="cls-3" y="2.65" width="3162.08" height="693.18"/>
  <g>
    <g id="Text_Logo" data-name="Text Logo">
      <path id="Kommune" class="cls-2" d="m1199.03,544.06l-46.57-55.66-9.09,9.64v46.02h-43.54v-194.82h43.54v95.62l40.51-44.09h52.08l-56.77,59.8,69.44,83.5h-49.6Zm140.26-145.77c98.94,1.32,99.75,147.8,0,148.53-99.79-.75-98.9-147.23,0-148.53Zm0,38.3c-43.62-.22-44.49,71.93,0,71.92,44.85-.09,43.95-72.06,0-71.92h0Zm290.72-38.03c71.54-2.4,56.66,93.31,57.59,145.5h-43.54v-75.78c0-18.19-7.72-31.97-27.83-31.97-16.81,0-28.11,14.88-31.41,28.11v79.64h-43.54v-75.78c0-18.19-11.3-31.97-27.83-31.97-17.91,0-28.66,12.12-31.41,28.11v79.64h-43.54v-143.29h43.54v26.18c9.47-36.21,73.52-38.82,95.07,2.76,3.31-7.72,19.84-31.14,52.91-31.14h0Zm275.56,0c71.54-2.4,56.66,93.31,57.59,145.5h-43.54v-75.78c0-18.19-7.72-31.97-27.83-31.97-16.81,0-28.11,14.88-31.41,28.11v79.64h-43.54v-75.78c0-18.19-11.3-31.97-27.83-31.97-17.91,0-28.66,12.12-31.41,28.11v79.64h-43.54v-143.29h43.54v26.18c9.47-36.21,73.52-38.82,95.07,2.76,3.31-7.72,19.84-31.14,52.91-31.14h0Zm136.4,147.7c-69.5,2.28-52.34-96.4-54.01-145.5h43.54v79.09c0,21.77,7.44,28.66,21.22,28.66,19.56,0,30.86-19.01,33.62-27.28v-80.46h43.54v143.29h-43.54v-24.8c-2.76,6.89-17.36,27.01-44.37,27.01Zm203.92-147.7c69.5-2.28,52.34,96.4,54.01,145.5h-43.54v-79.09c0-21.77-7.44-28.66-21.22-28.66-19.56,0-30.86,19.01-33.62,27.28v80.46h-43.54v-143.29h43.54v24.8c2.76-6.89,17.36-27.01,44.37-27.01Zm151.56-.28c32.52,0,77.98,24.53,68.89,89.28h-100.03c7.37,28.27,50.43,25.69,68.34,14.6l23.97,23.15c-38.6,40.57-137.18,23.5-136.68-52.36,0-50.15,42.99-74.68,75.5-74.68h0Zm0,37.2c-12.4,0-25.08,7.16-30.59,21.49h60.9c-4.41-14.33-17.91-21.49-30.31-21.49h0Z"/>
      <path id="Kids" class="cls-1" d="m1199.03,341.19l-46.57-55.66-9.09,9.64v46.02h-43.54v-194.82h43.54v95.62l40.51-44.09h52.08l-56.77,59.8,69.44,83.5h-49.6Zm107.19-194.82v36.65h-43.54v-36.65h43.54Zm0,51.53v143.29h-43.54v-143.29h43.54Zm131.17-51.53h43.54v194.82h-43.54v-14.33c-29.88,38.2-110.99,9.51-107.47-57.59-3.12-65.47,76.14-93.59,107.47-58.15v-64.76h0Zm-30.59,159.28c42.7,2.02,43.52-73.73,0-71.92-46.36-1.41-45.5,73.54,0,71.92Zm170.3-62.55c-3.86-9.92-9.64-13.23-15.98-13.23-5.79,0-11.57,3.31-11.57,8.82,1.37,21.11,70.11,11.15,68.89,60.35-1.34,58.28-105.63,60.05-116.56,4.68l34.17-10.75c12.98,33.44,58.43,9.37,30.04-3.58-29.01-8.47-61.2-25.06-58.97-51.53,1.35-55.85,95.38-54.5,106.64-4.41l-36.65,9.64Z"/>
    </g>
    <g id="Sun_Favicon" data-name="Sun Favicon">
      <path class="cls-4" d="m746.4,356.73c-5.38,38.13-38.1,67.46-77.71,67.46s-72.33-29.34-77.71-67.46c-.76-5.39,3.64-10.14,9.07-10.14h137.27c5.44,0,9.83,4.75,9.07,10.14h0Zm-48.44-54.96c0-9.31,7.55-16.86,16.86-16.86s16.86,7.55,16.86,16.86-7.54,16.86-16.86,16.86-16.86-7.55-16.86-16.86h0Zm-92.15,0c0-9.31,7.55-16.86,16.86-16.86s16.86,7.55,16.86,16.86-7.54,16.86-16.86,16.86-16.86-7.55-16.86-16.86h0Zm-122.77-122.5c-5.08-5.08-5.08-13.31,0-18.39,5.08-5.08,13.31-5.08,18.39,0l44.05,44.05c5.08,5.08,5.08,13.31,0,18.4-2.54,2.54-5.86,3.8-9.2,3.8s-6.65-1.26-9.19-3.8l-44.05-44.05Zm371.41,334.64c5.08,5.08,5.08,13.31,0,18.39-2.54,2.54-5.86,3.8-9.19,3.8s-6.66-1.26-9.2-3.81l-44.05-44.05c-5.08-5.08-5.08-13.31,0-18.39,5.08-5.08,13.31-5.08,18.39,0l44.05,44.05Zm-308.98-44.06c5.08,5.08,5.08,13.31,0,18.4l-44.05,44.05c-2.54,2.54-5.86,3.8-9.19,3.8s-6.66-1.26-9.2-3.8c-5.08-5.08-5.08-13.31,0-18.4l44.05-44.05c5.08-5.08,13.31-5.08,18.39,0h0Zm246.54-246.53c-5.08-5.08-5.08-13.31,0-18.4l44.05-44.05c5.08-5.08,13.31-5.08,18.39,0,5.08,5.08,5.08,13.31,0,18.39l-44.05,44.05c-2.54,2.54-5.87,3.8-9.2,3.8s-6.66-1.26-9.2-3.8h0Zm-310.6,136.27h-62.3c-7.18,0-13-5.82-13-13s5.83-13,13-13h62.3c7.18,0,13,5.82,13,13s-5.83,13-13,13h0Zm449.96-13c0,7.18-5.82,13-13,13h-62.29c-7.18,0-13-5.82-13-13s5.82-13,13-13h62.29c7.18,0,13,5.82,13,13h0Zm-249.63,187.33v62.3c0,7.18-5.82,13-13,13s-13-5.82-13-13v-62.3c0-7.18,5.82-13,13-13s13,5.82,13,13h0Zm-26-374.66v-62.29c0-7.18,5.82-13,13-13s13,5.82,13,13v62.29c0,7.18-5.82,13-13,13s-13-5.82-13-13h0Zm13,299.9c-62.07,0-112.57-50.5-112.57-112.57s50.5-112.57,112.57-112.57,112.57,50.5,112.57,112.57-50.5,112.57-112.57,112.57h0Zm0-251.15c-76.53,0-138.58,62.04-138.58,138.58s62.04,138.58,138.58,138.58,138.58-62.04,138.58-138.58-62.04-138.58-138.58-138.58h0Z"/>
    </g>
  </g>
</svg>